<svg width="35" height="36" viewBox="0 0 35 36" fill="none" xmlns="http://www.w3.org/2000/svg">
<g clip-path="url(#clip0_6_1431)">
<path d="M27.2899 18H20.4168C19.6432 18 18.9014 17.6927 18.3544 17.1457C17.8074 16.5987 17.5001 15.8568 17.5001 15.0833V8.1912C17.5021 7.52034 17.3498 6.85801 17.0549 6.25542C16.7601 5.65283 16.3306 5.12611 15.7997 4.71599C15.2966 4.3176 14.7087 4.04017 14.0814 3.90514C13.454 3.77011 12.804 3.78109 12.1816 3.93724C8.64608 4.81489 5.51602 6.87296 3.30904 9.77111C1.10206 12.6693 -0.0496441 16.2339 0.0443972 19.8755C0.138438 23.5171 1.47259 27.0175 3.82621 29.7979C6.17984 32.5782 9.41195 34.472 12.988 35.166C17.0088 35.9356 21.1717 35.1389 24.6241 32.939C28.0766 30.7391 30.5574 27.3026 31.5585 23.3331C31.7152 22.7098 31.7266 22.0589 31.5918 21.4306C31.4571 20.8022 31.1797 20.2133 30.7812 19.7091C30.3662 19.1789 29.8365 18.7497 29.2318 18.4537C28.6271 18.1577 27.9632 18.0025 27.2899 18ZM28.7307 22.62C28.1724 24.8685 27.0268 26.9284 25.4111 28.5889C23.7954 30.2495 21.7677 31.4511 19.5353 32.0708C17.3028 32.6905 14.9459 32.7062 12.7054 32.1161C10.465 31.5261 8.42144 30.3516 6.78386 28.7126C5.14628 27.0737 3.97342 25.0292 3.38524 22.7882C2.79705 20.5473 2.81465 18.1903 3.43624 15.9584C4.05783 13.7265 5.2611 11.6998 6.92298 10.0855C8.58485 8.4712 10.6457 7.3273 12.8947 6.77079C13.0871 6.72272 13.2881 6.72036 13.4816 6.76392C13.675 6.80748 13.8556 6.89573 14.0089 7.02162C14.1898 7.15959 14.3366 7.33739 14.4378 7.54123C14.5389 7.74507 14.5918 7.96947 14.5922 8.19704V15.0833C14.5922 16.6304 15.2068 18.1141 16.3007 19.2081C17.3947 20.302 18.8784 20.9166 20.4255 20.9166H27.2972C27.5268 20.9176 27.7531 20.9705 27.9592 21.0716C28.1653 21.1726 28.3459 21.3191 28.4872 21.5C28.6112 21.6553 28.6975 21.8373 28.7395 22.0316C28.7815 22.2259 28.7795 22.4272 28.7307 22.62Z" fill="#131515"/>
<path d="M34.491 11.3588C33.8196 8.89049 32.5153 6.64032 30.7072 4.83094C28.8991 3.02155 26.6498 1.71566 24.182 1.04251C23.9233 0.972961 23.6566 0.93766 23.3887 0.93751C23.0034 0.933849 22.6211 1.00659 22.264 1.15152C21.907 1.29646 21.5822 1.51072 21.3084 1.78192C21.0346 2.05313 20.8173 2.37589 20.669 2.73158C20.5207 3.08726 20.4443 3.46881 20.4443 3.85418V10.7083C20.4443 11.8687 20.9053 12.9815 21.7257 13.8019C22.5462 14.6224 23.659 15.0833 24.8193 15.0833H31.7012C32.1514 15.079 32.5944 14.971 32.996 14.7676C33.3976 14.5642 33.7469 14.271 34.0168 13.9107C34.2867 13.5504 34.4699 13.1327 34.5521 12.6901C34.6343 12.2475 34.6134 11.792 34.491 11.3588ZM30.8481 12.1667H24.8135C24.4267 12.1667 24.0558 12.013 23.7823 11.7395C23.5088 11.466 23.3552 11.0951 23.3552 10.7083L23.3435 3.86438C23.3542 3.85667 23.3668 3.85212 23.38 3.85126H23.4179C25.4043 4.39242 27.214 5.44509 28.6665 6.9042C30.1189 8.36331 31.1633 10.1778 31.6954 12.1667H30.8481Z" fill="#131515"/>
</g>
<defs>
<clipPath id="clip0_6_1431">
<rect width="35" height="35" fill="white" transform="translate(0 0.5)"/>
</clipPath>
</defs>
</svg>
