<svg width="35" height="36" viewBox="0 0 35 36" fill="none" xmlns="http://www.w3.org/2000/svg">
<path d="M33.7181 13.7256L22.6567 2.66267C21.2877 1.29765 19.4333 0.531128 17.5 0.531128C15.5668 0.531128 13.7124 1.29765 12.3434 2.66267L1.28189 13.7256C0.87418 14.1307 0.550932 14.6127 0.330888 15.1436C0.110844 15.6746 -0.00161933 16.244 1.76159e-05 16.8187V31.1352C1.76159e-05 32.2955 0.460954 33.4083 1.28143 34.2288C2.1019 35.0492 3.2147 35.5102 4.37502 35.5102H30.625C31.7853 35.5102 32.8981 35.0492 33.7186 34.2288C34.5391 33.4083 35 32.2955 35 31.1352V16.8187C35.0017 16.244 34.8892 15.6746 34.6691 15.1436C34.4491 14.6127 34.1259 14.1307 33.7181 13.7256ZM21.875 32.5935H13.125V26.8564C13.125 25.6961 13.586 24.5833 14.4064 23.7628C15.2269 22.9424 16.3397 22.4814 17.5 22.4814C18.6603 22.4814 19.7731 22.9424 20.5936 23.7628C21.4141 24.5833 21.875 25.6961 21.875 26.8564V32.5935ZM32.0834 31.1352C32.0834 31.5219 31.9297 31.8929 31.6562 32.1664C31.3827 32.4399 31.0118 32.5935 30.625 32.5935H24.7917V26.8564C24.7917 24.9225 24.0235 23.0679 22.656 21.7004C21.2886 20.333 19.4339 19.5647 17.5 19.5647C15.5661 19.5647 13.7115 20.333 12.344 21.7004C10.9766 23.0679 10.2084 24.9225 10.2084 26.8564V32.5935H4.37502C3.98824 32.5935 3.61731 32.4399 3.34382 32.1664C3.07033 31.8929 2.91668 31.5219 2.91668 31.1352V16.8187C2.91804 16.4322 3.07154 16.0618 3.34398 15.7877L14.4054 4.72912C15.2275 3.9109 16.3402 3.45154 17.5 3.45154C18.6599 3.45154 19.7725 3.9109 20.5946 4.72912L31.6561 15.792C31.9274 16.0651 32.0809 16.4337 32.0834 16.8187V31.1352Z" fill="#131515"/>
</svg>
