<svg width="23" height="25" viewBox="0 0 23 25" fill="none" xmlns="http://www.w3.org/2000/svg">
<path d="M22.7447 14.2313L20.7655 7.11044C20.1854 5.02433 18.9246 3.19199 17.1836 1.90468C15.4426 0.61737 13.3212 -0.0510324 11.1567 0.00571769C8.99213 0.0624678 6.90868 0.841114 5.23749 2.21789C3.56629 3.59466 2.40326 5.49055 1.93325 7.60419L0.400962 14.4948C0.231707 15.2562 0.23562 16.0459 0.412413 16.8056C0.589205 17.5652 0.934362 18.2755 1.4224 18.8839C1.91044 19.4924 2.5289 19.9834 3.23212 20.3208C3.93534 20.6582 4.70536 20.8334 5.48534 20.8334H6.64575C6.88483 22.0107 7.5236 23.0693 8.45382 23.8296C9.38404 24.5899 10.5485 25.0052 11.7499 25.0052C12.9513 25.0052 14.1158 24.5899 15.046 23.8296C15.9762 23.0693 16.615 22.0107 16.8541 20.8334H17.727C18.5299 20.8334 19.322 20.6478 20.0413 20.2911C20.7607 19.9344 21.3878 19.4162 21.8737 18.777C22.3596 18.1378 22.6911 17.3949 22.8424 16.6063C22.9937 15.8178 22.9596 15.0049 22.7447 14.2313ZM11.7499 22.9167C11.1059 22.914 10.4784 22.7124 9.95336 22.3395C9.42829 21.9666 9.03126 21.4406 8.81659 20.8334H14.6833C14.4686 21.4406 14.0716 21.9666 13.5465 22.3395C13.0214 22.7124 12.3939 22.914 11.7499 22.9167ZM20.2145 17.5156C19.9242 17.9007 19.5482 18.2128 19.1162 18.4271C18.6842 18.6413 18.2082 18.7519 17.726 18.75H5.48534C5.0174 18.7499 4.55546 18.6448 4.13361 18.4423C3.71176 18.2398 3.34076 17.9452 3.04801 17.5801C2.75525 17.2151 2.54821 16.789 2.44217 16.3332C2.33613 15.8774 2.3338 15.4037 2.43534 14.9469L3.96659 8.05523C4.3357 6.39503 5.2492 4.90586 6.56185 3.82445C7.87451 2.74304 9.51099 2.13145 11.2111 2.08691C12.9113 2.04237 14.5776 2.56744 15.945 3.57864C17.3125 4.58984 18.3027 6.02913 18.7583 7.66773L20.7374 14.7886C20.8682 15.2525 20.889 15.7405 20.7983 16.2139C20.7075 16.6873 20.5076 17.133 20.2145 17.5156Z" fill="#131515"/>
</svg>
