<svg width="25" height="25" viewBox="0 0 25 25" fill="none" xmlns="http://www.w3.org/2000/svg">
<g clip-path="url(#clip0_6_1443)">
<path d="M24.6949 23.2219L18.4772 17.0042C20.1716 14.9319 21.0047 12.2876 20.8041 9.61831C20.6036 6.94901 19.3847 4.4589 17.3997 2.66306C15.4147 0.867215 12.8153 -0.0969702 10.1393 -0.0300621C7.46336 0.0368461 4.91545 1.12973 3.02265 3.02253C1.12985 4.91533 0.0369681 7.46324 -0.02994 10.1392C-0.0968481 12.8152 0.867337 15.4146 2.66318 17.3996C4.45903 19.3846 6.94913 20.6035 9.61843 20.804C12.2877 21.0046 14.932 20.1715 17.0043 18.4771L23.222 24.6948C23.4185 24.8846 23.6816 24.9896 23.9547 24.9872C24.2278 24.9848 24.4891 24.8753 24.6822 24.6821C24.8754 24.489 24.9849 24.2277 24.9873 23.9546C24.9897 23.6815 24.8847 23.4184 24.6949 23.2219ZM10.4168 18.75C8.76863 18.75 7.15746 18.2613 5.78705 17.3456C4.41664 16.4299 3.34854 15.1284 2.71781 13.6057C2.08708 12.083 1.92205 10.4074 2.24359 8.79093C2.56514 7.17442 3.35881 5.68956 4.52425 4.52413C5.68969 3.35869 7.17454 2.56502 8.79105 2.24347C10.4076 1.92193 12.0831 2.08696 13.6058 2.71769C15.1286 3.34842 16.43 4.41652 17.3457 5.78693C18.2614 7.15734 18.7501 8.76851 18.7501 10.4167C18.7477 12.6261 17.8689 14.7442 16.3066 16.3065C14.7444 17.8688 12.6262 18.7475 10.4168 18.75Z" fill="#131515"/>
</g>
<defs>
<clipPath id="clip0_6_1443">
<rect width="25" height="25" fill="white"/>
</clipPath>
</defs>
</svg>
