<svg width="35" height="36" viewBox="0 0 35 36" fill="none" xmlns="http://www.w3.org/2000/svg">
<g clip-path="url(#clip0_6_1435)">
<path d="M35.0002 16.9018C34.7893 13.4894 33.5844 10.2132 31.534 7.47725C29.4836 4.7413 26.6775 2.66514 23.4614 1.50475C20.2454 0.344359 16.7601 0.150454 13.4352 0.94694C10.1103 1.74343 7.0911 3.49549 4.7499 5.98712C2.40871 8.47875 0.847824 11.601 0.25968 14.9691C-0.328464 18.3371 0.0818427 21.8036 1.44002 24.9412C2.79819 28.0789 5.04486 30.7505 7.90305 32.6267C10.7612 34.5029 14.106 35.5017 17.525 35.5H27.7085C29.6418 35.498 31.4953 34.7292 32.8624 33.3622C34.2294 31.9951 34.9983 30.1416 35.0002 28.2083V16.9018ZM32.0835 28.2083C32.0835 29.3686 31.6226 30.4814 30.8021 31.3019C29.9816 32.1224 28.8688 32.5833 27.7085 32.5833H17.525C15.4672 32.5824 13.4327 32.1477 11.5541 31.3077C9.67557 30.4677 7.99516 29.2412 6.62247 27.7081C5.24314 26.1758 4.20737 24.3663 3.58461 22.4009C2.96185 20.4355 2.76649 18.3597 3.01164 16.3127C3.39873 13.0838 4.84941 10.0757 7.13499 7.76236C9.42057 5.44906 12.411 3.96221 15.635 3.53622C16.2639 3.4574 16.897 3.41746 17.5308 3.41663C20.9294 3.40736 24.2228 4.59483 26.8335 6.7708C28.3582 8.03801 29.6098 9.60165 30.5122 11.3669C31.4146 13.1322 31.9492 15.0624 32.0835 17.0404V28.2083Z" fill="#131515"/>
<path d="M11.6668 13.625H17.5002C17.8869 13.625 18.2579 13.4714 18.5314 13.1979C18.8049 12.9244 18.9585 12.5535 18.9585 12.1667C18.9585 11.7799 18.8049 11.409 18.5314 11.1355C18.2579 10.862 17.8869 10.7084 17.5002 10.7084H11.6668C11.2801 10.7084 10.9091 10.862 10.6356 11.1355C10.3621 11.409 10.2085 11.7799 10.2085 12.1667C10.2085 12.5535 10.3621 12.9244 10.6356 13.1979C10.9091 13.4714 11.2801 13.625 11.6668 13.625Z" fill="#131515"/>
<path d="M23.3335 16.5416H11.6668C11.2801 16.5416 10.9091 16.6953 10.6356 16.9688C10.3621 17.2423 10.2085 17.6132 10.2085 18C10.2085 18.3867 10.3621 18.7577 10.6356 19.0312C10.9091 19.3046 11.2801 19.4583 11.6668 19.4583H23.3335C23.7203 19.4583 24.0912 19.3046 24.3647 19.0312C24.6382 18.7577 24.7918 18.3867 24.7918 18C24.7918 17.6132 24.6382 17.2423 24.3647 16.9688C24.0912 16.6953 23.7203 16.5416 23.3335 16.5416Z" fill="#131515"/>
<path d="M23.3335 22.375H11.6668C11.2801 22.375 10.9091 22.5286 10.6356 22.8021C10.3621 23.0756 10.2085 23.4466 10.2085 23.8333C10.2085 24.2201 10.3621 24.591 10.6356 24.8645C10.9091 25.138 11.2801 25.2917 11.6668 25.2917H23.3335C23.7203 25.2917 24.0912 25.138 24.3647 24.8645C24.6382 24.591 24.7918 24.2201 24.7918 23.8333C24.7918 23.4466 24.6382 23.0756 24.3647 22.8021C24.0912 22.5286 23.7203 22.375 23.3335 22.375Z" fill="#131515"/>
</g>
<defs>
<clipPath id="clip0_6_1435">
<rect width="35" height="35" fill="white" transform="translate(0 0.5)"/>
</clipPath>
</defs>
</svg>
